<svg xmlns="http://www.w3.org/2000/svg" xmlns:xlink="http://www.w3.org/1999/xlink" viewBox="484 431 64 40">
  <defs>
    <style>
      .cls-1 {
        fill: url(#linear-gradient);
      }

      .cls-2 {
        fill: #fff;
      }
    </style>
    <linearGradient id="linear-gradient" x2="1.063" y2="1" gradientUnits="objectBoundingBox">
      <stop offset="0" stop-color="#2ea4ef"/>
      <stop offset="1" stop-color="#416dc5"/>
    </linearGradient>
  </defs>
  <g id="Symbol_5_3" data-name="Symbol 5 – 3" transform="translate(-44 103)">
    <g id="Group_51" data-name="Group 51">
      <path id="Rectangle_97" data-name="Rectangle 97" class="cls-1" d="M0,0H60a4,4,0,0,1,4,4V36a4,4,0,0,1-4,4H0a0,0,0,0,1,0,0V0A0,0,0,0,1,0,0Z" transform="translate(528 328)"/>
    </g>
    <g id="Group_14" data-name="Group 14" transform="translate(542.928 336.012)">
      <path id="Path_19" data-name="Path 19" class="cls-2" d="M32.7,5.6a.1.1,0,0,0,.1-.1.876.876,0,0,0,.5-1,.876.876,0,0,0-1-.5,3.858,3.858,0,0,0-1.7,1.1h.2A8.709,8.709,0,0,1,32.7,5.6Z"/>
      <path id="Path_20" data-name="Path 20" class="cls-2" d="M33.8,7.6a2.906,2.906,0,0,0-2.9-1.9h-.2a5.048,5.048,0,0,0-2.3.9C26.3,2.9,21.8.3,16.5.3a16.876,16.876,0,0,0-5.6,1h0C9.5,0,7.3-.4,4.8.4A5.812,5.812,0,0,1,6.7,4h0C4.2,6,4.4,7.8,3.4,8.7c-.6.5-2-.1-2.7.5-.8.6-.8,3.8-.2,4.6s3.4.6,3.4.6a2.231,2.231,0,0,1-1.5,2s.6,1.5,3.8,1.5a10.953,10.953,0,0,0,2.9,2.3s.1,2.5.8,3.2,3.3.7,3.9,0a3.766,3.766,0,0,0,.4-1.4,19.481,19.481,0,0,0,2.5.2,14.213,14.213,0,0,0,4.2-.6s0,1.4.4,1.8c.7.7,3.3.7,3.9,0,.8-1,.8-4.4.8-4.4a9.956,9.956,0,0,0,3.8-7.7,8.662,8.662,0,0,0-.6-3.2,1.756,1.756,0,0,1,.5-.4A2.845,2.845,0,0,0,30.8,10a2.375,2.375,0,0,0,1.2.3h0a2.01,2.01,0,0,0,1.3-.4A2.461,2.461,0,0,0,33.8,7.6ZM20.9,12.2a.684.684,0,0,1-.7.7H17.8v2.4a.684.684,0,0,1-.7.7h-.4a.684.684,0,0,1-.7-.7V12.9H13.6a.684.684,0,0,1-.7-.7v-.4a.684.684,0,0,1,.7-.7H16V8.7a.773.773,0,0,1,.8-.7h.4a.684.684,0,0,1,.7.7v2.4h2.4a.684.684,0,0,1,.7.7v.4ZM32.1,8.7a.5.5,0,0,1-.6,0,1.369,1.369,0,0,1-.3-1.3,1.341,1.341,0,0,1,1.1.7A.5.5,0,0,1,32.1,8.7Z"/>
    </g>
  </g>
</svg>
