<svg xmlns="http://www.w3.org/2000/svg" xmlns:xlink="http://www.w3.org/1999/xlink" viewBox="544 135 5 24">
  <defs>
    <style>
      .cls-1 {
        fill: none;
      }

      .cls-2 {
        clip-path: url(#clip-path);
      }

      .cls-3 {
        fill: #d8d8d8;
      }
    </style>
    <clipPath id="clip-path">
      <rect class="cls-1" width="5" height="24"/>
    </clipPath>
  </defs>
  <g id="Symbol_4_1" data-name="Symbol 4 – 1" transform="translate(-43 103)">
    <g id="Repeat_Grid_22" data-name="Repeat Grid 22" class="cls-2" transform="translate(587 32)">
      <g transform="translate(-587 -35)">
        <path id="Path_21" data-name="Path 21" class="cls-3" d="M2.5,0A2.5,2.5,0,1,1,0,2.5,2.5,2.5,0,0,1,2.5,0Z" transform="translate(587 35)"/>
      </g>
      <g transform="translate(-587 -26)">
        <path id="Path_21-2" data-name="Path 21" class="cls-3" d="M2.5,0A2.5,2.5,0,1,1,0,2.5,2.5,2.5,0,0,1,2.5,0Z" transform="translate(587 35)"/>
      </g>
      <g transform="translate(-587 -17)">
        <path id="Path_21-3" data-name="Path 21" class="cls-3" d="M2.5,0A2.5,2.5,0,1,1,0,2.5,2.5,2.5,0,0,1,2.5,0Z" transform="translate(587 35)"/>
      </g>
    </g>
  </g>
</svg>
