<svg xmlns="http://www.w3.org/2000/svg" viewBox="6536.017 107.017 32.983 32.983">
  <defs>
    <style>
      .cls-1 {
        fill: #d8d8d8;
        fill-rule: evenodd;
      }
    </style>
  </defs>
  <g id="noun_1225027_cc" transform="translate(6580.564 -261.865) rotate(45)">
    <g id="Group_11" data-name="Group 11" transform="translate(241 280.677)">
      <path id="Path_15" data-name="Path 15" class="cls-1" d="M11.677,0A11.661,11.661,0,1,1,0,11.677,11.668,11.668,0,0,1,11.677,0Zm6.161,11.419V12a1.088,1.088,0,0,1-1.1,1.1H13.065v3.677a1.108,1.108,0,0,1-1.1,1.1h-.581a1.108,1.108,0,0,1-1.1-1.1V13.1H6.613a1.108,1.108,0,0,1-1.1-1.1v-.581a1.108,1.108,0,0,1,1.1-1.1H10.29V6.645a1.088,1.088,0,0,1,1.1-1.1h.581a1.088,1.088,0,0,1,1.1,1.1v3.677h3.677A1.088,1.088,0,0,1,17.839,11.419Z"/>
    </g>
  </g>
</svg>
