<svg xmlns="http://www.w3.org/2000/svg" viewBox="196 47.946 23.054 23.054">
  <defs>
    <style>
      .cls-1 {
        fill: #d8d8d8;
      }
    </style>
  </defs>
  <g id="noun_639958_cc" transform="translate(196 47.946)">
    <path id="Path_14" data-name="Path 14" class="cls-1" d="M11.527,0h0A11.527,11.527,0,0,0,0,11.527H0A11.527,11.527,0,0,0,11.527,23.054h0A11.527,11.527,0,0,0,23.054,11.527h0A11.527,11.527,0,0,0,11.527,0Zm-.9,5.668a.9.9,0,0,1,1.55-.612.815.815,0,0,1,.245.58v.4c0,2.006,0,4.08,0,6.121a.891.891,0,0,1-.9.859h0a.893.893,0,0,1-.893-.861c0-.765,0-1.54,0-2.292V8.645h0V7.974C10.627,7.222,10.624,6.432,10.627,5.668Zm2.078,12.5a6.394,6.394,0,0,1-7.484-5.138A6.278,6.278,0,0,1,6.957,7.351a.923.923,0,0,1,.67-.3.884.884,0,0,1,.609.247.89.89,0,0,1,.027,1.288,4.7,4.7,0,0,0-1.3,2.567,4.615,4.615,0,0,0,9.141,1.276,4.5,4.5,0,0,0-1.272-3.788.906.906,0,0,1-.265-.943.894.894,0,0,1,1.49-.381,6.331,6.331,0,0,1,1.857,4.017c.01.122.018.247.024.368l.01.167A6.4,6.4,0,0,1,12.7,18.167Z"/>
  </g>
</svg>
